<?xml version="1.0" standalone="no"?>
<!DOCTYPE svg PUBLIC "-//W3C//DTD SVG 20010904//EN"
 "http://www.w3.org/TR/2001/REC-SVG-20010904/DTD/svg10.dtd">
<svg version="1.0" xmlns="http://www.w3.org/2000/svg"
 width="1000.000000pt" height="1000.000000pt" viewBox="0 0 1000.000000 1000.000000"
 preserveAspectRatio="xMidYMid meet">
<metadata>
Created by potrace 1.14, written by Peter Selinger 2001-2017
</metadata>
<g transform="translate(0.000000,1000.000000) scale(0.100000,-0.100000)"
fill="#000000" stroke="none">
<path d="M4858 7885 c-204 -33 -383 -90 -537 -171 l-83 -44 -770 0 -769 0 -24
-24 c-20 -20 -23 -29 -16 -53 5 -15 182 -451 394 -968 212 -517 399 -983 417
-1035 18 -52 55 -142 82 -200 27 -58 376 -901 775 -1875 398 -973 731 -1780
738 -1791 20 -32 52 -36 79 -11 15 15 263 605 731 1742 389 946 742 1794 785
1885 43 91 92 210 110 265 18 55 208 524 421 1043 214 518 389 953 389 967 0
57 25 55 -811 55 l-766 0 -110 55 c-130 65 -279 115 -429 146 -140 28 -471 36
-606 14z m547 -59 c254 -46 447 -122 645 -255 313 -210 538 -494 653 -827 36
-103 74 -251 66 -257 -2 -3 -278 -14 -612 -27 l-608 -22 -68 65 c-122 115
-257 160 -416 138 -263 -37 -430 -269 -394 -551 23 -190 169 -356 354 -405
230 -59 428 37 536 262 l41 83 41 0 c23 0 269 9 547 20 278 11 529 20 559 20
l54 0 -7 -77 c-25 -285 -144 -605 -314 -843 -85 -120 -260 -295 -382 -383
-175 -124 -397 -221 -615 -267 -131 -28 -421 -38 -573 -20 -345 40 -644 175
-911 411 -386 341 -589 826 -568 1359 21 544 285 1004 755 1321 220 148 456
233 742 269 100 12 376 4 475 -14z m-162 -1245 c21 -5 41 -11 43 -14 6 -6
-149 -487 -156 -487 -3 0 -38 109 -76 243 l-71 242 36 12 c43 14 171 16 224 4z"/>
</g>
</svg>
